<?xml version="1.0" encoding="UTF-8"?>
<svg id="Layer_1" data-name="Layer 1" xmlns="http://www.w3.org/2000/svg" viewBox="0 0 512 812">
  <defs>
    <style>
      .cls-1 {
        fill: #398100;
      }

      .cls-2 {
        fill: #001a44;
      }
    </style>
  </defs>
  <g>
    <path class="cls-2" d="M243.5,431.5c.27-49.67,40.76-90,90.5-90h112.5v90h-203Z"/>
    <path d="M446,342v89h-201.99c.54-49.17,40.7-89,89.99-89h112M447,341h-113c-50.26,0-91,40.74-91,91h0s204,0,204,0v-91h0Z"/>
  </g>
  <g>
    <path class="cls-1" d="M81.5,379v-90h203c-.27,49.67-40.76,90-90.5,90h-112.5Z"/>
    <path d="M283.99,289.5c-.54,49.17-40.7,89-89.99,89h-112v-89h201.99M285,288.5H81v91h113c50.26,0,91-40.74,91-91h0Z"/>
  </g>
  <g>
    <path class="cls-1" d="M141.5,798.5c-77.79-.27-141-63.64-141-141.5V.5c77.79.27,141,63.64,141,141.5v656.5Z"/>
    <path d="M1,1c37.29.26,72.31,14.9,98.7,41.29,26.63,26.63,41.3,62.04,41.3,99.7v656c-37.29-.26-72.31-14.9-98.7-41.29-26.63-26.63-41.3-62.04-41.3-99.7V1M0,0h0v657c0,78.42,63.58,142,142,142h0V142C142,63.58,78.42,0,0,0H0Z"/>
  </g>
  <g>
    <path class="cls-2" d="M511.5,811.5c-77.79-.27-141-63.64-141-141.5V13.5c77.79.27,141,63.64,141,141.5v656.5Z"/>
    <path d="M371,14c37.29.26,72.31,14.9,98.7,41.29,26.63,26.63,41.3,62.04,41.3,99.7v656c-37.29-.26-72.31-14.9-98.7-41.29-26.63-26.63-41.3-62.04-41.3-99.7V14M370,13h0v657c0,78.42,63.58,142,142,142h0V155c0-78.42-63.58-142-142-142h0Z"/>
  </g>
</svg>