<?xml version="1.0" encoding="UTF-8"?>
<svg id="Layer_1" data-name="Layer 1" xmlns="http://www.w3.org/2000/svg" viewBox="0 0 485.17 757.17">
  <defs>
    <style>
      .cls-1 {
        fill: #39b54a;
      }

      .cls-2 {
        fill: #14002a;
      }

      .cls-3 {
        fill: #1800aa;
      }

      .cls-4 {
        fill: #450055;
      }

      .cls-5 {
        fill: #eb1919;
      }

      .cls-6 {
        fill: #fcee21;
      }
    </style>
  </defs>
  <g>
    <path class="cls-4" d="M281.67,457c-25.92,0-47-21.08-47-47s21.08-47,47-47h57c25.92,0,47,21.08,47,47s-21.08,47-47,47h-57Z"/>
    <path d="M338.67,363.5c25.64,0,46.5,20.86,46.5,46.5s-20.86,46.5-46.5,46.5h-57c-25.64,0-46.5-20.86-46.5-46.5s20.86-46.5,46.5-46.5h57M338.67,362.5h-57c-26.23,0-47.5,21.27-47.5,47.5h0c0,26.23,21.27,47.5,47.5,47.5h57c26.23,0,47.5-21.27,47.5-47.5h0c0-26.23-21.27-47.5-47.5-47.5h0Z"/>
  </g>
  <g>
    <path class="cls-2" d="M138.5,375.67c-25.92,0-47-21.08-47-47s21.08-47,47-47h57c25.92,0,47,21.08,47,47s-21.08,47-47,47h-57Z"/>
    <path d="M195.5,282.17c25.64,0,46.5,20.86,46.5,46.5s-20.86,46.5-46.5,46.5h-57c-25.64,0-46.5-20.86-46.5-46.5s20.86-46.5,46.5-46.5h57M195.5,281.17h-57c-26.23,0-47.5,21.27-47.5,47.5h0c0,26.23,21.27,47.5,47.5,47.5h57c26.23,0,47.5-21.27,47.5-47.5h0c0-26.23-21.27-47.5-47.5-47.5h0Z"/>
  </g>
  <g>
    <rect class="cls-2" x=".5" y="9.67" width="133" height="747" rx="49.5" ry="49.5"/>
    <path d="M84,10.17c27.02,0,49,21.98,49,49v648c0,27.02-21.98,49-49,49h-34c-27.02,0-49-21.98-49-49V59.17C1,32.16,22.98,10.17,50,10.17h34M84,9.17h-34C22.39,9.17,0,31.56,0,59.17v648c0,27.61,22.39,50,50,50h34c27.61,0,50-22.39,50-50V59.17c0-27.61-22.39-50-50-50h0Z"/>
  </g>
  <g>
    <rect class="cls-4" x="351.67" y=".5" width="133" height="747" rx="50" ry="50"/>
    <path d="M434.67,1c27.29,0,49.5,22.21,49.5,49.5v647c0,27.29-22.21,49.5-49.5,49.5h-33c-27.29,0-49.5-22.21-49.5-49.5V50.5c0-27.29,22.21-49.5,49.5-49.5h33M434.67,0h-33c-27.89,0-50.5,22.61-50.5,50.5v647c0,27.89,22.61,50.5,50.5,50.5h33c27.89,0,50.5-22.61,50.5-50.5V50.5c0-27.89-22.61-50.5-50.5-50.5h0Z"/>
  </g>
  <path class="cls-3" d="M227.4,360.61c.64,3.91,3.34,6.96,4.43,10.7.99,3.4-.72,5.94-3.08,8.22-2.24,2.16-4.91,4.11-6.36,6.93-1.96,3.81-.78,7.83,1.45,11.25,2.55,3.89,5.72,8.24,10.03,10.27,1.74.82,3.26-1.77,1.51-2.59-3.71-1.75-6.33-5.35-8.59-8.65-1.17-1.71-2.36-3.66-2.46-5.78-.07-1.6.52-3.03,1.46-4.3,1.78-2.39,4.34-4.08,6.32-6.29,2.24-2.5,3.47-5.45,2.85-8.83-.77-4.2-3.99-7.49-4.68-11.72-.31-1.9-3.2-1.09-2.89.8h0Z"/>
  <path d="M242.52,339.57c3.66,1.98,7.24,4.7,9.68,8.11,1.03,1.44,2.01,3.2,1.89,5.03-.13,1.99-1.91,3.49-3.01,5.02-2.36,3.31-3.91,7.26-4.42,11.29-.41,3.25.38,6.83,3.67,8.19,1.78.74,2.56-2.17.8-2.89-1.33-.55-1.56-2.45-1.57-3.69-.01-1.81.46-3.63,1.02-5.33.67-2.03,1.64-3.94,2.85-5.7,1.06-1.55,2.5-2.87,3.19-4.64,1.45-3.71-.68-7.57-3.05-10.35-2.65-3.11-5.95-5.69-9.54-7.63-1.7-.92-3.21,1.67-1.51,2.59h0Z"/>
  <path class="cls-1" d="M237.05,352.17c3.51,7.76,5.67,16.12,6.38,24.61.16,1.91,3.16,1.93,3,0-.76-9.05-3.05-17.84-6.79-26.12-.79-1.76-3.38-.23-2.59,1.51h0Z"/>
  <path class="cls-5" d="M245.12,321.3c3.64,1.49,7.1,3.5,10.19,5.94,2.78,2.2,5.77,4.81,6.54,8.43.81,3.83-.42,7.86.94,11.63,1.12,3.1,3.61,5.29,6.41,6.9,1.57.9,3.24,1.62,4.88,2.39.82.38,1.77.75,1.34,1.81-.37.9-1.18,1.62-1.9,2.25-1.46,1.27.67,3.38,2.12,2.12,1.35-1.17,2.71-2.72,2.89-4.57.21-2.14-1.32-3.45-3.1-4.27-3.14-1.44-6.9-2.88-8.91-5.85-2.41-3.54-1.05-8.17-1.6-12.15-.58-4.21-3.35-7.34-6.49-9.99-3.76-3.17-7.96-5.66-12.5-7.52-1.78-.73-2.56,2.17-.8,2.89h0Z"/>
  <path class="cls-6" d="M214.88,369.43c-6.14,2.24-7.42,9.8-5.6,15.39,1.23,3.77,3.41,7.1,5.08,10.67s2.49,7.75,2.18,11.83-2.19,7.92-3.27,11.92c-1,3.72-.85,7.42.9,10.89,1.59,3.14,4.18,5.7,6.83,7.96,3.01,2.56,6.15,5.04,9.43,7.25,7.24,4.87,16.56,8,24.87,3.86,1.73-.86.21-3.45-1.51-2.59-6.69,3.33-14.42.81-20.37-2.9-3.09-1.93-5.97-4.21-8.8-6.5-2.53-2.05-5.11-4.24-6.92-6.98s-2.51-5.99-1.75-9.34c.83-3.66,2.57-7.04,3.23-10.75s.54-7.33-.33-10.9-2.64-6.75-4.33-9.97-3.21-6.39-3.02-10c.15-2.77,1.37-5.91,4.17-6.93,1.8-.66,1.02-3.56-.8-2.89h0Z"/>
</svg>